# xmcd CD database file
#
# Track frame offsets:
#	150
#	11342
#	22197
#	38837
#	51897
#	76787
#	96325
#	107932
#	118940
#	139082
#	153527
#	171665
#	181862
#	196562
#
# Disc length: 2831 seconds
#
# Revision: 0
# Processed by: cddbd v1.5.1PL0 Copyright (c) Steve Scherf et al.
# Submitted via: CDex 1.51
#
DISCID=b80b0d0e
DTITLE=Elizabeth Carling - Goodnight Sweetheart
DYEAR=1999
DGENRE=Jazz
TTITLE0=Our love is here to stay
TTITLE1=It Don't mean a thing if you ain't got the swing
TTITLE2=Blue Moon
TTITLE3=Long Ago
TTITLE4=It had to be you
TTITLE5=As time goes by
TTITLE6=All of me
TTITLE7=Ain't Misbehavin'
TTITLE8=I'll be seeing you
TTITLE9=The man I love
TTITLE10=Laura
TTITLE11=Big noise from Winnetka
TTITLE12=Murder he says
TTITLE13=Goodnight sweetheart
EXTD=YEAR: 1999
EXTT0=
EXTT1=
EXTT2=
EXTT3=
EXTT4=
EXTT5=
EXTT6=
EXTT7=
EXTT8=
EXTT9=
EXTT10=
EXTT11=
EXTT12=
EXTT13=
PLAYORDER=
